<?xml version="1.0" encoding="utf-8"?>
<!-- Generator: Adobe Illustrator 25.4.1, SVG Export Plug-In . SVG Version: 6.00 Build 0)  -->
<svg version="1.1" id="Capa_1" xmlns="http://www.w3.org/2000/svg" xmlns:xlink="http://www.w3.org/1999/xlink" x="0px" y="0px"
	 viewBox="0 0 410 135" style="enable-background:new 0 0 410 135;" xml:space="preserve">
<style type="text/css">
	.st0{fill:#64D9E8;}
</style>
<path class="st0" d="M278.6,83.2V65.7c0-10.4-4.2-20.2-19.6-20.2c-5.5,0-20.4,0.9-24.4,1.5c-0.8,0.1-2,1.6-2.5,2.7
	c-3.9,7.8-18.2,33-18.2,33L205,57.4c-0.8-2.6-3.2-4.5-6-4.5c0,0,0,0,0,0c0,0,0,0,0,0h0c-2.8,0-5.2,1.8-6,4.5l-8.9,25.4
	c0,0-17.2-28.9-21.1-36.8c-1-1.7-1.8-2.7-3.4-2.7h-4.2c-2.4,0-4.7,2.1-3.4,4.5l24,42.3c2.2,3.4,3.7,5.1,6.9,5.1h0c3.1,0,5.9-2,6.9-5
	l8.9-22.5l0.3-0.4l0.3,0.4l8.9,22.5c0.9,3,3.7,5,6.9,5h0c3.2,0,4.7-1.7,6.9-5.1l20.1-36.5c5.1-0.4,12.6-0.3,15,0.2
	c8.7,1.5,10,5.6,10,9v0.8c-17.9-0.1-28.7,6.1-28.7,18.2c0,7.3,5.3,14.2,15.1,14.2c6.4,0,11.5-2.8,14.3-6.6l0.2,1.1
	c0,0.1,0,0.2,0.1,0.3l0.3,2.1c0.3,1.9,1.9,3.3,3.8,3.3h2.8c2.2,0,4-1.9,3.8-4.1C278.7,89.2,278.6,86,278.6,83.2z M267.4,78
	c0,0.8-0.1,1.8-0.4,2.7c-1.2,3.6-4.8,7-10,7c-4,0-7.2-2.3-7.2-7.2c0-7.8,8.8-9.5,17.6-9.4V78z M379.5,66.2v24.1
	c0,3.2-2.6,5.7-5.7,5.7c-3.2,0-5.7-2.6-5.7-5.7V67.5c0-7.1-2.6-12.6-9.6-12.6c-5,0-8.6,3.6-10,7.5c-0.4,1-0.6,2.5-0.6,3.9v24
	c0,3.2-2.6,5.7-5.7,5.7s-5.7-2.6-5.7-5.7V60.7c0-4.2-0.1-7.7-0.2-11c-0.1-1.7,1.2-3,2.9-3h4.3c1.5,0,2.8,1.2,2.9,2.7l0.4,4.7h0.3
	c2.2-3.9,7.5-8.5,15.5-8.5C370.4,45.5,379.5,50.7,379.5,66.2z M391.9,33.1c0-3.6,2.6-6.4,6.5-6.4c4,0,6.5,2.7,6.5,6.4
	c0,3.5-2.5,6.3-6.7,6.3C394.5,39.4,391.9,36.6,391.9,33.1z M404.2,49.6v40.8c0,3.2-2.6,5.7-5.7,5.7s-5.7-2.6-5.7-5.7V49.6
	c0-1.6,1.3-2.9,2.9-2.9h5.6C402.9,46.6,404.2,47.9,404.2,49.6z M327.9,49.3L311.4,76v14.3c0,3.2-2.6,5.7-5.7,5.7
	c-3.2,0-5.7-2.6-5.7-5.7V76l-16.5-26.7c-0.7-1.2,0.1-2.7,1.5-2.7h4.2c4.2,0,8.1,2.4,10.1,6.2l6.6,12.9l6.6-12.9
	c1.9-3.8,5.8-6.2,10.1-6.2h4.2C327.8,46.6,328.6,48.1,327.9,49.3z M144.5,97.1c3.4,5.9,3.9,12.5,2.2,18.2l-43.7-25.2
	c6.3-8.3,11-17.2,10.4-24.8l-32,18.5l0,28.9c0.1-0.1,0.2-0.2,0.4-0.3c3.9-3.4,9.2-8.4,14.4-14.2l45.3,26.2
	c-4.2,4.7-10.2,7.7-17.3,7.7H28.4c-7.1,0-13.2-3.1-17.3-7.7l45.3-26.2C61.6,104,67,109,70.8,112.4c0.1,0.1,0.2,0.2,0.4,0.3l0-28.9
	l-32-18.5c-0.6,7.6,4.2,16.5,10.4,24.8L6,115.3c-1.7-5.8-1.2-12.3,2.2-18.3l48-83.1c3.5-6.1,9-9.7,15-11.1l0,51.8
	c-6-4.5-15.6-8.4-26.1,0c-0.5,0.4-0.9,0.8-1.4,1.2l32.7,18.9l32.7-18.9c-0.4-0.4-0.9-0.8-1.4-1.2c-10.6-8.4-20.1-4.5-26.1,0l0-51.8
	c6,1.3,11.5,5,15,11.1L144.5,97.1z"/>
</svg>
